<svg width="11" height="12" viewBox="0 0 11 12" fill="none" xmlns="http://www.w3.org/2000/svg">
<path d="M8.75 0.5C9.44219 0.5 10 1.05781 10 1.75C10 2.44219 9.44219 3 8.75 3C8.42448 3 8.12909 2.87282 7.89941 2.66016L7.62793 2.40918L7.30859 2.5957L3.19531 4.99316L2.88184 5.17578L2.95898 5.53125C2.98573 5.6543 2.99996 5.74701 3 5.83301C3 5.91911 2.98577 6.01251 2.95898 6.13574L2.88184 6.49121L3.19629 6.67383L7.35547 9.09473L7.6709 9.27832L7.94238 9.0332C8.16329 8.83368 8.44301 8.71289 8.75 8.71289C9.41302 8.71289 9.95312 9.25397 9.95312 9.91699C9.95295 10.5776 9.41515 11.1143 8.75 11.1143C8.08485 11.1143 7.54705 10.5776 7.54688 9.91699C7.54688 9.82669 7.55874 9.73706 7.58008 9.64746L7.66602 9.28613L7.34473 9.09961L3.19141 6.67871L2.87207 6.49219L2.60059 6.74414C2.37091 6.9568 2.07552 7.08301 1.75 7.08301C1.05781 7.08301 0.5 6.5252 0.5 5.83301C0.500175 5.14097 1.05792 4.58301 1.75 4.58301C2.07552 4.58301 2.37091 4.71019 2.60059 4.92285L2.87207 5.17383L3.19141 4.9873L7.30469 2.58984L7.61816 2.40723L7.54102 2.05176C7.51428 1.92871 7.5 1.83602 7.5 1.75C7.5 1.05781 8.05781 0.5 8.75 0.5ZM8.75 8.83301C8.15303 8.83301 7.66699 9.32002 7.66699 9.91699C7.66717 10.5138 8.15313 11 8.75 11C9.34687 11 9.83283 10.5138 9.83301 9.91699C9.83301 9.32002 9.34698 8.83301 8.75 8.83301ZM1.75 4.75C1.15313 4.75 0.667169 5.23618 0.666992 5.83301C0.666992 6.42998 1.15302 6.91699 1.75 6.91699C2.34698 6.91699 2.83301 6.42998 2.83301 5.83301C2.83283 5.23618 2.34687 4.75 1.75 4.75ZM8.75 0.666992C8.15302 0.666992 7.66699 1.15302 7.66699 1.75C7.66699 2.34698 8.15303 2.83301 8.75 2.83301C9.34698 2.83301 9.83301 2.34698 9.83301 1.75C9.83301 1.15302 9.34698 0.666992 8.75 0.666992Z" fill="#25282B" stroke="black"/>
</svg>
