<svg width="11" height="15" viewBox="0 0 11 15" fill="none" xmlns="http://www.w3.org/2000/svg">
<path d="M0 5.25C0 4.56056 0.142262 3.87787 0.418662 3.24091C0.695064 2.60395 1.10019 2.0252 1.61091 1.53769C2.12164 1.05018 2.72795 0.66347 3.39524 0.399632C4.06253 0.135795 4.77773 0 5.5 0C6.22227 0 6.93747 0.135795 7.60476 0.399632C8.27205 0.66347 8.87837 1.05018 9.38909 1.53769C9.89981 2.0252 10.3049 2.60395 10.5813 3.24091C10.8577 3.87787 11 4.56056 11 5.25C11 6.29025 10.6779 7.25775 10.1318 8.07375H10.1381C8.28379 10.845 5.5 15 5.5 15L0.861929 8.07375H0.867429C0.301393 7.23103 0.000355721 6.25106 0 5.25ZM5.5 7.5C6.12515 7.5 6.7247 7.26295 7.16675 6.84099C7.6088 6.41903 7.85714 5.84674 7.85714 5.25C7.85714 4.65326 7.6088 4.08097 7.16675 3.65901C6.7247 3.23705 6.12515 3 5.5 3C4.87485 3 4.2753 3.23705 3.83325 3.65901C3.3912 4.08097 3.14286 4.65326 3.14286 5.25C3.14286 5.84674 3.3912 6.41903 3.83325 6.84099C4.2753 7.26295 4.87485 7.5 5.5 7.5Z" fill="#DA4852"/>
</svg>
