<svg width="19" height="19" viewBox="0 0 19 19" fill="none" xmlns="http://www.w3.org/2000/svg">
<path d="M9.16667 5.83333C10.0507 5.83333 10.8986 6.18452 11.5237 6.80964C12.1488 7.43477 12.5 8.28261 12.5 9.16667C12.5 10.0507 12.1488 10.8986 11.5237 11.5237C10.8986 12.1488 10.0507 12.5 9.16667 12.5C8.28261 12.5 7.43477 12.1488 6.80964 11.5237C6.18452 10.8986 5.83333 10.0507 5.83333 9.16667C5.83333 8.28261 6.18452 7.43477 6.80964 6.80964C7.43477 6.18452 8.28261 5.83333 9.16667 5.83333ZM1.70833 10H0V8.33333H1.70833C2.08333 4.85833 4.85833 2.08333 8.33333 1.70833V0H10V1.70833C13.475 2.08333 16.25 4.85833 16.625 8.33333H18.3333V10H16.625C16.25 13.475 13.475 16.25 10 16.625V18.3333H8.33333V16.625C4.85833 16.25 2.08333 13.475 1.70833 10ZM9.16667 3.33333C7.61957 3.33333 6.13584 3.94792 5.04188 5.04188C3.94792 6.13584 3.33333 7.61957 3.33333 9.16667C3.33333 10.7138 3.94792 12.1975 5.04188 13.2915C6.13584 14.3854 7.61957 15 9.16667 15C10.7138 15 12.1975 14.3854 13.2915 13.2915C14.3854 12.1975 15 10.7138 15 9.16667C15 7.61957 14.3854 6.13584 13.2915 5.04188C12.1975 3.94792 10.7138 3.33333 9.16667 3.33333Z" fill="#DA4852"/>
</svg>
