<svg width="390" height="373" viewBox="0 0 390 373" fill="none" xmlns="http://www.w3.org/2000/svg">
<g clip-path="url(#clip0_1317_8097)">
<rect width="581" height="373" transform="translate(-155)" fill="#FFDFE2"/>
<g opacity="0.3">
<path d="M-175.189 -922.186C-176.619 -920.546 -177.979 -918.802 -179.267 -916.959C-194.297 -895.453 -199.674 -860.22 -191.904 -818.085C-176.381 -733.913 -108.402 -622.615 38.371 -540.973C52.3643 -533.189 66.3342 -525.326 80.2257 -517.4L84.3914 -510.798C68.7611 -519.748 53.0155 -528.624 37.2324 -537.403C-110.554 -619.609 -179.702 -732.123 -195.547 -818.043C-203.461 -860.954 -198.084 -897.337 -182.379 -919.807C-180.862 -921.978 -179.249 -924.017 -177.545 -925.918L-175.189 -922.186Z" fill="#DA4852" fill-opacity="0.5"/>
<path d="M-658.046 -471.195C-645.084 -484.266 -484.652 -706.591 -473.874 -725.551C-445.406 -775.627 -425.066 -844.79 -414.908 -925.861L-410.736 -928.493C-420.771 -845.346 -441.42 -774.291 -470.608 -722.946C-481.615 -703.585 -643.17 -482.167 -656.53 -468.793L-658.046 -471.195Z" fill="#DA4852" fill-opacity="0.5"/>
<path d="M-210.196 -202.913C-142.466 -262.271 -115.27 -347.109 -120.007 -437.252C-125.49 -541.57 -173.751 -653.079 -251.654 -740.46C-271.157 -762.335 -286.495 -774.943 -298.561 -780.102C-304.553 -782.663 -309.687 -783.366 -314.132 -782.507C-318.579 -781.647 -322.473 -779.197 -325.898 -775.2C-332.799 -767.148 -337.662 -752.984 -341.154 -733.765C-344.636 -714.601 -346.712 -690.672 -348.207 -663.341C-349.386 -641.776 -355.123 -585.264 -355.985 -560.203C-357.628 -512.405 -363.742 -344.072 -368.603 -291.041L-373.116 -311.788L-368.328 -394.011C-363.773 -445.391 -362.209 -521.009 -360.607 -567.528C-359.741 -592.673 -353.109 -642.628 -351.921 -664.356C-350.424 -691.73 -348.337 -715.862 -344.81 -735.275C-341.293 -754.633 -336.301 -769.563 -328.83 -778.28C-325.07 -782.668 -320.648 -785.521 -315.441 -786.528C-310.232 -787.535 -304.374 -786.668 -297.825 -783.869C-284.811 -778.305 -268.879 -765.025 -249.249 -743.006C-170.618 -654.808 -121.838 -542.191 -116.293 -436.698C-111.488 -345.283 -139.157 -259.281 -207.884 -199.25L-210.196 -202.913Z" fill="#DA4852" fill-opacity="0.5"/>
<path d="M-99.6715 214.627C-94.2101 217.69 159.682 371.841 165.698 375.252C171.377 378.472 177.304 381.832 183.478 385.304C214.229 402.599 251.287 422.777 294.971 442.598C338.462 462.331 370.384 464.667 392.19 456.512C413.955 448.373 425.884 429.698 429.208 406.746C435.877 360.684 407.84 297.582 354.893 268.98C300.401 239.544 245.372 168.451 234.079 94.3421C233.633 91.4134 233.255 88.4802 232.948 85.5451C139.928 100.871 41.5188 88.0574 -43.8165 60.767L-47.0044 55.715C39.0215 83.7559 138.625 97.0309 232.56 81.37C229.884 48.4721 236.287 15.4607 255.565 -14.2833C274.228 -43.0788 304.911 -68.7451 350.962 -88.333L353.274 -84.6683C307.388 -65.2273 277.069 -39.8104 258.736 -11.5237C240.092 17.2441 233.796 49.0494 236.184 80.7509C298.609 69.8294 358.413 46.0073 409.92 5.10589L412.225 8.75747C360.119 50.0666 299.632 74.0329 236.55 84.9372C236.865 88.1105 237.265 91.2814 237.748 94.4467C248.791 166.916 302.749 236.627 355.983 265.384C410.763 294.976 439.82 360.23 432.886 408.119C429.408 432.142 416.861 451.84 393.967 460.402C371.114 468.948 338.193 466.311 294.151 446.328C250.301 426.432 213.118 406.184 182.321 388.864C176.086 385.357 170.12 381.975 164.417 378.742C160.344 376.433 156.407 374.201 152.602 372.054L25.1386 294.485L-96.1886 220.147L-99.6715 214.627Z" fill="#DA4852" fill-opacity="0.5"/>
<path d="M508.029 160.59C511.805 182.69 516.89 200.352 522.421 214.995C529.709 234.293 537.743 248.318 544.768 260.582L544.769 260.583C547.22 264.863 549.549 268.929 551.68 272.929C555.78 280.624 559.128 288.061 561.016 296.165C562.909 304.288 563.309 312.963 561.665 323.153C558.393 343.434 546.995 369.87 522.952 410.239C506.15 438.451 493.999 464.401 484.663 487.935L478.942 491.545C488.628 466.334 501.456 438.244 519.719 407.579C543.747 367.234 554.842 341.267 557.996 321.719C559.564 311.994 559.159 303.898 557.418 296.427C555.673 288.935 552.557 281.954 548.554 274.44C546.529 270.639 544.27 266.696 541.864 262.495C534.802 250.169 526.467 235.619 519.017 215.894C512.724 199.233 507.041 178.859 503.133 152.83L508.029 160.59Z" fill="#DA4852" fill-opacity="0.5"/>
</g>
</g>
<defs>
<clipPath id="clip0_1317_8097">
<rect width="581" height="373" fill="white" transform="translate(-155)"/>
</clipPath>
</defs>
</svg>
